<svg xmlns="http://www.w3.org/2000/svg" version="1.1" xmlns:xlink="http://www.w3.org/1999/xlink" xmlns:svgjs="http://svgjs.dev/svgjs" width="100%" height="100%" viewBox="0 0 1000 600"><rect width="1000" height="600" x="0" y="0" fill="#072c50"/><g><circle r="166.66666666666666" cx="309.4909311930338" cy="331.713130190928" fill="#b88746" transform="matrix(0.8752015908898151,0,0,0.8752015908898151,0,9.684129921346113)"/><path d="M394.57173408227925 256.7131421873578L394.57173408227925 256.7131421873578Q397.4804792028574 256.7131421873578 400.2181216692839 257.6827238942172Q402.98428124473566 258.6237884920513 405.15158153065664 260.3918492516184Q407.2903647075523 262.1313929021602 408.60215172271506 264.69793271443507Q409.9139387378777 267.23595541768464 409.9139387378777 270.4583887375408L409.9139387378777 270.4583887375408Q409.9139387378777 276.675118505051 405.8930263653138 284.6028748140777Q401.90063110177516 292.50211401407915 395.48428157108805 303.1389956805071L395.48428157108805 303.1389956805071Q388.554624077946 314.4602879635417 382.4234456375117 325.75306313755095Q376.3207843061026 337.017321202535 371.0451191364266 347.51161732383656Q365.79797107577576 357.97739633611286 361.43485339490854 367.2454567693275Q357.0717357140413 376.51351720254223 353.8778195032104 383.84241422203814L353.8778195032104 383.84241422203814Q357.8702147667491 384.3557221844931 361.8911271393129 384.6408932747459Q365.8835224028516 384.95458147402394 369.1059557227078 384.84051303792285L369.1059557227078 384.84051303792285L369.30557548588473 390.0591439895483Q368.5926477602528 390.0591439895483 364.02991031620866 390.0021097714978Q359.4671728721645 389.9735926624725 351.6534849992389 388.8614254104868L351.6534849992389 388.8614254104868Q348.54512011548377 396.07625399388155 346.89112779201776 400.0971663664455Q345.23713546855174 404.08956162998413 345.23713546855174 404.2891813931611L345.23713546855174 404.2891813931611L333.31698389598637 400.58195721987516L339.33409390031966 386.86522777871744Q332.6040561703545 385.35382100037776 325.1896078237827 383.3576233686085Q317.775159477211 381.3329086278139 310.10405714941174 378.7948859245643Q302.4329548216125 376.2283461122895 294.8188867118638 373.0059127924333Q287.2048186021151 369.8119965816024 280.1896097818973 365.9907039722154L280.1896097818973 365.9907039722154Q273.659191815109 373.5192207548883 266.0451237053603 380.79108355633366Q258.43105559561167 388.062946357779 249.7048202338772 393.8234023808848Q240.97858487214273 399.5838584039905 231.19721647647307 403.14849703215003Q221.4158480808034 406.71313566030955 210.6078637602238 406.71313566030955L210.6078637602238 406.71313566030955Q200.9690809096805 406.71313566030955 191.3873322771878 403.83290764875665Q181.83410075372032 400.98119674622905 174.24854975299692 395.53442892240133Q166.69151586129877 390.0591439895483 161.98619287212824 382.18842189857213Q157.25235277393242 374.317699807596 157.25235277393242 364.30819453972407L157.25235277393242 364.30819453972407Q157.25235277393242 356.3804382306974 160.21813211256114 350.3633282263641Q163.18391145118983 344.3462182220309 168.34550818476478 340.325305849467Q173.50710491833973 336.33291058592835 180.46527952050707 334.27967873610845Q187.4519712316997 332.2264468862886 195.46527886780225 332.2264468862886L195.46527886780225 332.2264468862886Q201.5679401992113 332.2264468862886 208.15539238405006 333.4241654653502Q214.71432745986354 334.6218840444118 220.9310572273737 337.41656072888884Q227.1477869948839 340.2397545223912 232.65158903676215 344.8595261844859Q238.1553910786404 349.4507807375553 242.09075212412853 356.2663697945963L242.09075212412853 356.2663697945963L237.6706002252107 359.0895635880986Q237.5565317891096 358.88994382492166 236.50139875517442 357.52112259170843Q235.47478283026447 356.18081846752045 233.39303387141933 354.2131379447764Q231.33980202159944 352.27397453105766 228.14588581076856 350.0496400270861Q224.92345249091235 347.85382263213984 220.47478348296931 346.00021054549694Q216.02611447502625 344.146598458854 210.1515900158194 342.89184566174185Q204.2770655566125 341.6370928646297 196.86261721004078 341.6370928646297L196.86261721004078 341.6370928646297Q189.3341004273679 341.6370928646297 183.74474705841382 344.20363267690453Q178.12687658043444 346.7416553801541 174.36261818909801 350.7055335346675Q170.5983597977616 354.66941168918083 168.74474771111863 359.5743544415283Q166.8911356244757 364.50781430290107 166.8911356244757 369.0990688559705L166.8911356244757 369.0990688559705Q166.8911356244757 374.51731957077294 168.8017819291692 378.99450568774125Q170.6839111248374 383.4431746956843 173.96337866274416 387.0648475418944Q177.21432909162561 390.65800327907914 181.57744677249286 393.3100944184298Q185.94056445336008 395.96218555778046 190.78847298765697 397.7872805353981Q195.6648986309792 399.5838584039905 200.71242692845303 400.4964058927994Q205.78847233495216 401.3804362725829 210.6078637602238 401.3804362725829L210.6078637602238 401.3804362725829Q220.53181770101986 401.3804362725829 229.65729258910818 398.12948584370145Q238.78276747719647 394.87853541481996 246.88162644037487 389.5173189180681Q255.00900251257852 384.15610242131623 262.1667968779228 377.3405133642753Q269.35310835229234 370.5249243072343 275.4557696837014 363.3956470509153L275.4557696837014 363.3956470509153Q268.6401806266604 359.28918335127554 262.8797246035547 354.5268261440545Q257.119268580449 349.76446893683334 252.8987364447081 344.2891840039804Q248.70672141799253 338.84241618015267 246.33980136889463 332.56865219459195Q243.97288131979673 326.2948882090312 243.97288131979673 319.27967938881335L243.97288131979673 319.27967938881335Q243.97288131979673 313.462189147657 246.1401816057177 308.3576266321326Q248.30748189163867 303.2530641166082 252.0432231739498 299.3747372891707Q255.80748156528625 295.5249275707584 260.96907829886123 293.2720759577616Q266.13067503243616 291.01922434476484 272.0622337096936 291.01922434476484L272.0622337096936 291.01922434476484Q278.6782030035576 291.01922434476484 284.58124457178974 293.0724561945847Q290.5128032490471 295.12568804440457 295.81698552774844 298.690326672564Q301.1211678064498 302.2264481916983 305.79797368659507 307.15990805307104Q310.4462624577151 312.0648508054185 314.55272615735475 317.7682726104737L314.55272615735475 317.7682726104737Q325.7884671133136 305.24926174837753 336.96717385122173 294.15610633754517Q348.1458805891299 283.0914680357381 358.46907405627985 274.7644722003575Q368.7922675234297 266.43747636497693 377.9747766295686 261.58956783068Q387.15728573570743 256.7131421873578 394.57173408227925 256.7131421873578ZM317.6610910411099 322.3880442725684L317.6610910411099 322.3880442725684Q322.39493113930575 329.6028728559632 326.3017750757685 337.331009401813Q330.20861901223134 345.05914594766284 333.37401811403697 352.4735942942346Q336.5109001068173 359.8880426408063 338.9633714829911 366.5610461527209Q341.44435996819004 373.2055325556102 343.24093783678245 378.3386121801599L343.24093783678245 378.3386121801599Q354.9614696461709 352.75876538448733 368.30747667 328.20553451372473Q381.62496658480393 303.65230364296207 398.27895825556516 279.669414952705L398.27895825556516 279.669414952705Q400.98808361296636 275.6770196891663 402.1287679739774 273.0249285498156Q403.29796944401375 270.3443203014397 403.29796944401375 268.46219110577147L403.29796944401375 268.46219110577147Q403.29796944401375 265.23975778591534 400.5888440866125 263.58576546244933Q397.8797187292113 261.9317731389833 394.3721143191023 261.9317731389833L394.3721143191023 261.9317731389833Q383.25044179924464 261.9317731389833 364.02991031620866 277.1313922494554Q344.837895942198 292.30249425090227 317.6610910411099 322.3880442725684ZM253.09835620788505 324.099070814085L253.09835620788505 324.099070814085Q253.09835620788505 329.4032530927863 255.12307094867964 334.16561030000736Q257.119268580449 338.9279675072285 260.6268729905579 343.2910851880957Q264.1344774006668 347.65420286896295 268.95386882593846 351.5040125873752Q273.77326025121016 355.38233941481275 279.3626136201642 358.77587538882057L279.3626136201642 358.77587538882057Q286.8911304028371 349.65040050073225 294.7048182757627 340.43937428556814Q302.5470232577136 331.19983096137867 310.5603308938162 322.1884245093915L310.5603308938162 322.1884245093915Q307.0527264837072 317.56865284729673 303.28846809237075 313.6047746927834Q299.52420970103435 309.6694136472953 295.4177460013946 306.76066852671715Q291.3112823017549 303.851923406139 286.8911304028371 302.2264481916983Q282.4709785039193 300.62949008628283 277.7656555147488 300.62949008628283L277.7656555147488 300.62949008628283Q272.4614732360475 300.62949008628283 267.9557700100538 302.42606795487524Q263.42154967503495 304.2511629324929 260.1135650281029 307.3880449252732Q256.8055803811709 310.55344402707885 254.95196829452797 314.8310103808703Q253.09835620788505 319.0800596256364 253.09835620788505 324.099070814085ZM338.8207859378647 381.2473573007381L338.8207859378647 381.2473573007381Q337.42344759562616 376.7131369657192 335.05652754652823 370.29678743503206Q332.7181246064556 363.880437904345 329.55272550464997 356.5230237758238Q326.38732640284434 349.1656096473026 322.42344824833094 341.4374731014528Q318.48808720284285 333.709336555603 313.7542471046471 326.69412773538505L313.7542471046471 326.69412773538505Q306.85310672053026 334.5078156083107 299.43865837395856 343.14849964296934Q291.9956929183615 351.7606665686027 283.982385282259 361.48500074622183L283.982385282259 361.48500074622183Q290.9975941024768 365.3918446826846 298.6686964302761 368.55724378449025Q306.3397987580753 371.7226428862959 313.6116615595207 374.17511426246966Q320.8835243609661 376.6275856386434 327.4424594367796 378.42416350723573Q334.00139451259304 380.2492584848534 338.8207859378647 381.2473573007381ZM399.6762965978036 316.4850027043363L417.2143186483484 316.4850027043363Q418.24093457325836 314.77397616281974 420.7789572765079 310.55344402707885Q423.3454970887828 306.36142900036333 426.7960672808411 301.2283493758136Q430.2466374728995 296.1237868602892 434.324584063514 290.96219012671423Q438.3740135451032 285.8005933931393 442.280857481566 282.17892054692925L442.280857481566 282.17892054692925L446.81507781658485 284.8880459043305Q442.4804772447429 292.0173231606495 437.9747740187493 299.97359657870146Q433.46907079275576 307.95838710577874 429.0489188938379 316.4850027043363L429.0489188938379 316.4850027043363L461.72952583680416 316.4850027043363L459.73332820503487 321.6751165469365L426.33979353643673 321.6751165469365Q421.83409031044306 330.715040107949 417.8702121559298 339.6408952328604Q413.9063340014164 348.56675035777175 410.91203755376245 356.6656093209502Q407.88922399708315 364.7929853931538 406.2067145645919 371.8652284314223Q404.4956880230753 378.9374714696907 404.4956880230753 384.15610242131623L404.4956880230753 384.15610242131623Q404.4956880230753 390.65800327907914 407.48998447072927 393.50971418160674Q410.51279802740856 396.38994219315964 414.93294992632633 396.38994219315964L414.93294992632633 396.38994219315964Q418.8397938627891 396.38994219315964 422.9462575624289 394.0230221440617Q427.0527212620686 391.6561020949638 431.016599416582 388.062946357779Q434.9804775710954 384.44127351156897 438.5165990902296 380.1351900487523Q442.081237718389 375.8291065859356 444.84739729384086 372.0078139765486Q447.6135568692926 368.2150384761869 449.410134737885 365.334810464634Q451.2067126064773 362.4830995621065 451.6059521328312 361.7986889454998L451.6059521328312 361.7986889454998L455.3131763061171 364.59336562997686Q451.8055718960082 370.41085587113315 447.4139371061156 376.9412738379214Q442.99378520719796 383.4431746956843 437.63256871044604 389.0040109556131Q432.2713522136941 394.564847215542 425.94055401008285 398.24355427980254Q419.63827291549677 401.8937442350379 412.3093758960009 401.8937442350379L412.3093758960009 401.8937442350379Q407.8036726700073 401.8937442350379 404.4386538050247 400.29678612962243Q401.07363494004215 398.67131091518166 398.79226621802013 395.8196000126541Q396.48238038697275 392.96788911012646 395.3131789169364 389.0610451736637Q394.17249455592537 385.1542012372009 394.17249455592537 380.5344295751062L394.17249455592537 380.5344295751062Q394.17249455592537 377.5401331274522 395.11355915375947 372.0078139765486Q396.08314086061887 366.50401193467036 398.36450958264095 358.91846093394696Q400.6743954136883 351.36142704224886 404.5527222411259 341.95078106390775Q408.40253195953807 332.5116179765414 414.30557352777026 321.6751165469365L414.30557352777026 321.6751165469365L397.6800989660344 321.6751165469365L399.6762965978036 316.4850027043363Z " fill="#072c50" transform="matrix(0.8752015908898151,0,0,0.8752015908898151,0,9.684129921346113)"/><path d="M781.1351015308418 260.73480210115736L781.1351015308418 260.73480210115736Q783.8517206797403 260.73480210115736 786.4085387022332 261.6403418174569Q788.9919902457935 262.51924801268876 791.0161378469336 264.170526318882Q793.0136519270061 265.79517110400764 794.2387938961172 268.1921880000946Q795.4639358652283 270.5625713751139 795.4639358652283 273.57215925575645L795.4639358652283 273.57215925575645Q795.4639358652283 279.3782668485004 791.7086093946921 286.7823857053024Q787.9799164452235 294.1598710410367 781.9873742050061 304.09417439926375L781.9873742050061 304.09417439926375Q775.5154285855713 314.66768226311405 769.7892215560302 325.2145566058967Q764.0896480475567 335.7347974276117 759.1624466500447 345.53593318050054Q754.2618787736002 355.31043541232185 750.1869500502523 363.96632975930254Q746.1120213269046 372.6222241062832 743.1290669673297 379.4670390206649L743.1290669673297 379.4670390206649Q746.8577599167983 379.9464423998823 750.6130863873345 380.2127776105586Q754.3417793368031 380.5057463423026 757.3513672174456 380.39921225803204L757.3513672174456 380.39921225803204L757.5378018649191 385.27314661340887Q756.8719638382282 385.27314661340887 752.6106004674069 385.21987957127357Q748.3492370965857 385.193246050206 741.0516523240543 384.1545387285683L741.0516523240543 384.1545387285683Q738.1485985276823 390.8928195586794 736.6038543057596 394.64814602921564Q735.0591100838369 398.37683897868425 735.0591100838369 398.5632736261577L735.0591100838369 398.5632736261577L723.9262982775663 395.1009158873654L729.5459712228369 382.290192253834Q723.2604602508756 380.8786156372494 716.3357447732909 379.0142691625151Q709.4110292957064 377.1232891667132 702.2466121285131 374.7529057916939Q695.0821949613198 372.35588889560694 687.9710448362619 369.3463010149644Q680.8598947112039 366.36334665538953 674.3080485285662 362.7944548323267L674.3080485285662 362.7944548323267Q668.2089722040782 369.8257043941818 661.0978220790203 376.6172522664282Q653.9866719539623 383.40880013867456 645.8368145072666 388.7887713943364Q637.686957060571 394.16874264999825 628.5516593343729 397.49793278345237Q619.4163616081748 400.8271229169065 609.3222571235419 400.8271229169065L609.3222571235419 400.8271229169065Q600.320127002682 400.8271229169065 591.3712639239573 398.1371372890756Q582.4490343663003 395.47378518231227 575.36451776231 390.3867826583944Q568.3066346793872 385.27314661340887 563.9121037032278 377.9222947987422Q559.4909392060008 370.57144298407553 559.4909392060008 361.22307708933636L559.4909392060008 361.22307708933636Q559.4909392060008 353.8189582325344 562.2608253970345 348.1992852872639Q565.0307115880684 342.5796123419933 569.85137890131 338.8242858714571Q574.6720462145515 335.0955929219885 581.170625355054 333.1779794051189Q587.6958380166241 331.26036588824934 595.1798574366288 331.26036588824934L595.1798574366288 331.26036588824934Q600.8794309451023 331.26036588824934 607.0317743117255 332.3789737730899Q613.157484157281 333.4975816579305 618.963591750025 336.1076667225585Q624.769699342769 338.74438530825415 629.9099689088222 343.0590157212107Q635.0502384748753 347.3470126130996 638.7256643822086 353.7124241482639L638.7256643822086 353.7124241482639L634.5974686167256 356.3491427339595Q634.490934532455 356.16270808648613 633.5054942529525 354.8842990752397Q632.5466874945178 353.632523585061 630.6024404565806 351.79481063139434Q628.684826939711 349.9837311987953 625.7018725801362 347.9063165555199Q622.6922846994937 345.8555354333121 618.5374554129429 344.124356563916Q614.3826261263921 342.39317769451986 608.8961207864597 341.22130276754405Q603.4096154465274 340.04942784056817 596.4848999689428 340.04942784056817L596.4848999689428 340.04942784056817Q589.4536504070877 340.04942784056817 584.2334802778316 342.44644473665517Q578.986676627508 344.8168281116745 575.4710518465805 348.51888754007547Q571.9554270656529 352.2209469684764 570.2242481962568 356.8019125921093Q568.4930693268607 361.4095117368098 568.4930693268607 365.6975086286987L568.4930693268607 365.6975086286987Q568.4930693268607 370.7578776315489 570.2775152383921 374.9393404391673Q572.0353276288558 379.094169725718 575.0981825516336 382.4766269013074Q578.1344039533437 385.83245055582915 582.2093326766916 388.309368015119Q586.2842614000394 390.7862854744089 590.811959981537 392.4908308227374Q595.3662920841023 394.16874264999825 600.0804253130733 395.02101532416253Q604.821192063112 395.84665447725916 609.3222571235419 395.84665447725916L609.3222571235419 395.84665447725916Q618.5907224550781 395.84665447725916 627.1134491967207 392.810433075549Q635.6361759383633 389.7742116738388 643.200095921571 384.76710971312383Q650.7906494258464 379.76000775240885 657.4756632138223 373.3945962172446Q664.1873105228657 367.0291846820803 669.8868840313392 360.37080441517213L669.8868840313392 360.37080441517213Q663.5214724961749 356.535577381433 658.1415012405131 352.0877793631383Q652.7615299848512 347.63998134484353 648.8197688668415 342.52634529985806Q644.9046412698995 337.43934277594013 642.694059021286 331.57996814106093Q640.4834767726725 325.7205935061817 640.4834767726725 319.168747323544L640.4834767726725 319.168747323544Q640.4834767726725 313.73550902574686 642.5076243738125 308.9681087546406Q644.5317719749526 304.2007084835343 648.0207632348125 300.57854961833624Q651.53638801574 296.9830242742058 656.3570553289817 294.8789761098628Q661.1777226422232 292.7749279455198 666.7174950242909 292.7749279455198L666.7174950242909 292.7749279455198Q672.8964719119816 292.7749279455198 678.4096107729818 294.69254146238933Q683.9493831550493 296.6101549792589 688.903218073629 299.939345112713Q693.8570529922088 303.2419017250995 698.2249504473006 307.8495008698Q702.5662143813247 312.43046649343285 706.4014414150639 317.75717070695947L706.4014414150639 317.75717070695947Q716.8950487157113 306.0650549582686 727.3353889742234 295.7046152629594Q737.7757292327354 285.3708090887178 747.4170638592186 277.593820936969Q757.0583984857017 269.8168327852202 765.6343922694795 265.2891342037226Q774.2103860532573 260.73480210115736 781.1351015308418 260.73480210115736ZM709.3044952114359 322.07180111991596L709.3044952114359 322.07180111991596Q713.7256597086629 328.8100819500271 717.3744520949286 336.0277661593556Q721.0232444811943 343.2454503686841 723.9795653197016 350.17016584626873Q726.9092526371412 357.09488132385326 729.1997354489577 363.32712525367936Q731.5168517818418 369.5327356624378 733.1947636091026 374.32676945461174L733.1947636091026 374.32676945461174Q744.1411407678997 350.436501056945 756.6056286275518 327.5050394177131Q769.0434829661365 304.57357777848114 784.5974592696341 282.1747865606019L784.5974592696341 282.1747865606019Q787.1276437710592 278.4460936111333 788.1929846137646 275.9691761518434Q789.2849589775375 273.4656251714859 789.2849589775375 271.70781278102214L789.2849589775375 271.70781278102214Q789.2849589775375 268.6982249003796 786.7547744761124 267.1534806784569Q784.2245899746872 265.6087364565342 780.9486668833683 265.6087364565342L780.9486668833683 265.6087364565342Q770.5615936669915 265.6087364565342 752.6106004674069 279.80440318558254Q734.68624078889 293.97343639356325 709.3044952114359 322.07180111991596ZM649.006203514315 323.6698123839739L649.006203514315 323.6698123839739Q649.006203514315 328.62364730255365 650.8971835101169 333.07144532084834Q652.7615299848512 337.5192433391431 656.0374530761701 341.5941720624909Q659.3133761674889 345.66910078583874 663.8144412279189 349.26462612996914Q668.3155062883488 352.88678499516726 673.5356764176048 356.0561740022156L673.5356764176048 356.0561740022156Q680.5669259794599 347.53344726057304 687.8645107519914 338.9308199557276Q695.1887290455904 330.3015591298145 702.6727484655953 321.8853664724425L702.6727484655953 321.8853664724425Q699.3968253742764 317.570736059486 695.8812005933489 313.868676631085Q692.3655758124213 310.1932507237517 688.5303487786822 307.4766315748531Q684.6951217449431 304.7600124259546 680.5669259794599 303.2419017250995Q676.4387302139769 301.75042454531206 672.0441992378175 301.75042454531206L672.0441992378175 301.75042454531206Q667.0903643192377 301.75042454531206 662.8822679905517 303.4283363725729Q658.647538140798 305.1328817209014 655.5580496969526 308.06256903834105Q652.4685612531073 311.01888987684833 650.7373823837111 315.0139180369933Q649.006203514315 318.98231267607053 649.006203514315 323.6698123839739ZM729.0665678436195 377.0433886035103L729.0665678436195 377.0433886035103Q727.7615253113055 372.8086587537567 725.5509430626919 366.81611651353927Q723.366994335146 360.82357427332187 720.4106734966388 353.9521258378726Q717.4543526581315 347.0806774024233 713.7522932297305 339.8629931930947Q710.0768673223972 332.64530898376626 705.6557028251701 326.0934628011285L705.6557028251701 326.0934628011285Q699.210390726803 333.39104757365993 692.2856752492185 341.46100445715274Q685.3343262505663 349.5043278195779 677.8503068305614 358.5863585036407L677.8503068305614 358.5863585036407Q684.402153013199 362.2351508899064 691.5665701803923 365.19147172841366Q698.7309873475856 368.14779256692094 705.522535219832 370.4382753787374Q712.3140830920784 372.7287581905538 718.4397929376339 374.40667001781463Q724.5655027831895 376.11121536614314 729.0665678436195 377.0433886035103ZM997.1329573893447 256.7131404199448L999.7696759750404 260.8413361854279Q993.6705996505525 264.7564637823699 987.0654864257795 267.4464494102009Q980.4870067220742 270.1098015169642 973.455757160219 271.70781278102214Q966.424507598364 273.2791905240125 959.0470222626298 273.9450285507033Q951.6429034058277 274.6108665773941 944.0523499015524 274.6108665773941L944.0523499015524 274.6108665773941Q934.490915838272 274.6108665773941 923.9174079744218 273.6254262978917Q913.3439001105716 272.63998601838927 902.9035598520595 271.52137813354875Q892.4632195935474 270.37613672764047 882.7153508827937 269.3906964481381Q872.9941156931077 268.43188968970327 865.1105934570884 268.43188968970327L865.1105934570884 268.43188968970327Q853.604912355871 268.43188968970327 844.1500123768612 271.3615770071429Q834.6951123978516 274.3178978456502 827.9568315677404 279.697869101312Q821.2185507376294 285.07784035697387 817.5164913092283 292.615126819114Q813.8144318808274 300.1524132812541 813.8144318808274 309.4208786127903L813.8144318808274 309.4208786127903Q813.8144318808274 315.8928242322251 815.9983806083733 321.08636084041353Q818.2089628569869 326.27989744860196 822.2838915803347 329.84878927166477Q826.3588203036825 333.39104757365993 832.0583938121559 335.30866109052954Q837.784600841697 337.25290812846674 844.7093163192816 337.25290812846674L844.7093163192816 337.25290812846674Q850.701858559499 337.25290812846674 857.0672700946632 335.7880644697469Q863.4326816298275 334.34985433209476 869.6116585175184 331.44680053572273L869.6116585175184 331.44680053572273L871.5825390765232 335.2820275694619Q865.2970281045618 338.9308199557276 857.1205371367985 341.0881351622059Q848.9174126479676 343.2454503686841 840.5811205537984 343.2454503686841L840.5811205537984 343.2454503686841Q833.3900698655376 343.2454503686841 826.7316895986294 341.16803572540874Q820.0733093317212 339.11725460320105 814.8797727235327 334.9357917955827Q809.6862361153443 330.78096250903195 806.5967476714989 324.4688180160029Q803.5072592276534 318.1300400019063 803.5072592276534 309.60731326026377L803.5072592276534 309.60731326026377Q803.5072592276534 301.1911206028918 806.0374437290786 294.5061068149159Q808.5676282305037 287.7944595058724 812.9621592066632 282.600922897684Q817.3566901828226 277.40738628949555 823.269331859837 273.7585939032299Q829.155340015784 270.1098015169642 835.9468878880303 267.7127846208772Q842.7384357602767 265.3424012458579 850.0360205328082 264.2504268820849Q857.3602388264072 263.1850860393796 864.551289514668 263.1850860393796L864.551289514668 263.1850860393796Q873.1805503405811 263.1850860393796 883.061586656673 264.1971598399497Q892.9426229727649 265.2358671615873 903.2231621048711 266.40774208856317Q913.530334758045 267.57961701553904 923.9174079744218 268.6183243371767Q934.3044811907987 269.63039813774674 944.0523499015524 269.63039813774674L944.0523499015524 269.63039813774674Q951.3499346740837 269.63039813774674 958.4610847991416 269.0178271531912Q965.5988684452673 268.43188968970327 972.2838822332433 266.9137789888482Q978.968896021219 265.42230180906074 985.2011399510452 262.9453843497709Q991.4333838808714 260.46846689048107 997.1329573893447 256.7131404199448L997.1329573893447 256.7131404199448ZM931.0285580994798 280.3104400858675L934.0381459801224 282.8406245872927Q926.0747231809 292.4020586505729 919.9490133353445 302.84239890908503Q913.8233034897889 313.28273916759713 908.6031333605329 323.7497129471769Q903.4095967523444 334.2433202478242 898.7220970444412 344.49722585886286Q894.0612308576053 354.75113146990157 889.0008618547552 363.96632975930254Q883.9404928519049 373.20816156977116 878.1876523012961 381.0117832425876Q872.4348117506875 388.8420384364717 865.0839599360207 394.54161194494515Q857.733108121354 400.2678189744862 848.3048416634119 403.4904750236698Q838.9032087265376 406.7131310728534 826.7316895986294 406.7131310728534L826.7316895986294 406.7131310728534Q815.9717470873056 406.7131310728534 807.6887220352719 403.94324488181957Q799.3790634621703 401.1999922118534 793.7593905168999 396.3793248986118Q788.1663510926969 391.5586575853702 785.2632972963249 385.0334449238002Q782.360243499953 378.53486578329773 782.360243499953 370.94431227902237L782.360243499953 370.94431227902237Q782.360243499953 368.0412584826504 782.7331127948999 365.43117341802235Q783.1059820898466 362.7944548323267 783.8517206797403 360.6371396258484L783.8517206797403 360.6371396258484L788.5392203876438 362.048716242433Q787.9799164452235 363.93969623823494 787.580413629209 366.23017905005133Q787.2075443342621 368.5206618618678 787.2075443342621 370.94431227902237L787.2075443342621 370.94431227902237Q787.2075443342621 378.7213004307712 790.483467425581 384.5274080235152Q793.7593905168999 390.33351561625915 799.112728251494 394.16874264999825Q804.4394324650207 398.0039696837374 811.2842473794022 399.92158320060696Q818.1290622937839 401.83919671747657 825.240212418842 401.83919671747657L825.240212418842 401.83919671747657Q835.5207515509483 401.83919671747657 843.5374413923057 398.2969384154814Q851.5541312336632 394.7280465924186 858.1059774163009 388.602336746863Q864.6578235989386 382.4766269013074 870.0377948546004 374.2202353703412Q875.4177661102624 365.99047736044264 880.4781351131126 356.535577381433Q885.5385041159628 347.0806774024233 890.6255066398808 336.85340531245225Q895.7391426848662 326.65276674354885 901.6784178829483 316.63856282211884Q907.6176930810306 306.6243589006889 914.7554767271561 297.30262652701737Q921.8666268522142 287.98089415334584 931.0285580994798 280.3104400858675L931.0285580994798 280.3104400858675Z " fill="#b88746" transform="matrix(0.8752015908898151,0,0,0.8752015908898151,0,9.684129921346113)"/></g></svg>